<svg width="280" height="280" viewBox="0 0 280 280" fill="none" xmlns="http://www.w3.org/2000/svg">
<g clip-path="url(#clip0)">
<g filter="url(#filter0_d)">
<path d="M242.748 2.8875C241.085 1.05 238.74 0 236.255 0H43.7555C41.288 0 38.9255 1.05 37.263 2.8875C35.618 4.7075 34.7955 7.1575 35.0405 9.625L61.2905 272.125C61.7455 276.605 65.508 280 70.0055 280H210.005C214.503 280 218.265 276.605 218.703 272.125L244.953 9.625C245.215 7.1575 244.41 4.7075 242.748 2.8875Z" fill="#ECEFF1"/>
<path d="M242.379 3.22472L242.377 3.22296C240.809 1.48943 238.598 0.5 236.255 0.5H43.7555C41.4299 0.5 39.202 1.48976 37.6339 3.22277L242.379 3.22472ZM242.379 3.22472C243.944 4.93874 244.703 7.24661 244.456 9.57211L244.455 9.57525L218.205 272.075L218.205 272.076M242.379 3.22472L218.205 272.076M218.205 272.076C217.793 276.299 214.247 279.5 210.005 279.5H70.0055C65.7646 279.5 62.2174 276.299 61.788 272.075L218.205 272.076ZM35.538 9.57525C35.3072 7.24975 36.0825 4.93936 37.6337 3.22296L35.538 9.57525ZM35.538 9.57525C35.538 9.57534 35.538 9.57551 35.538 9.5756L61.7879 272.074L35.538 9.57525Z" stroke="black"/>
</g>
<path d="M219.455 89.25L202.13 262.5H77.8805L58.4555 68.775C80.3305 61.775 113.58 57.05 140.005 78.75C165.555 99.75 197.755 95.9 219.455 89.25Z" fill="#2196F3"/>
</g>
<defs>
<filter id="filter0_d" x="30.9979" y="0" width="218.004" height="288" filterUnits="userSpaceOnUse" color-interpolation-filters="sRGB">
<feFlood flood-opacity="0" result="BackgroundImageFix"/>
<feColorMatrix in="SourceAlpha" type="matrix" values="0 0 0 0 0 0 0 0 0 0 0 0 0 0 0 0 0 0 127 0"/>
<feOffset dy="4"/>
<feGaussianBlur stdDeviation="2"/>
<feColorMatrix type="matrix" values="0 0 0 0 0 0 0 0 0 0 0 0 0 0 0 0 0 0 0.25 0"/>
<feBlend mode="normal" in2="BackgroundImageFix" result="effect1_dropShadow"/>
<feBlend mode="normal" in="SourceGraphic" in2="effect1_dropShadow" result="shape"/>
</filter>
<clipPath id="clip0">
<rect width="280" height="280" fill="white"/>
</clipPath>
</defs>
</svg>
