<svg width="375" height="812" viewBox="0 0 375 812" fill="none" xmlns="http://www.w3.org/2000/svg">
<rect width="375" height="812" fill="#3767AD"/>
<g filter="url(#filter0_d)">
<path d="M289.748 205.888C288.085 204.05 285.74 203 283.255 203H90.7555C88.288 203 85.9255 204.05 84.263 205.888C82.618 207.707 81.7955 210.158 82.0405 212.625L108.29 475.125C108.745 479.605 112.508 483 117.005 483H257.005C261.503 483 265.265 479.605 265.703 475.125L291.953 212.625C292.215 210.158 291.41 207.707 289.748 205.888Z" fill="#ECEFF1"/>
<path d="M289.379 206.225L289.377 206.223C287.809 204.489 285.598 203.5 283.255 203.5H90.7555C88.4299 203.5 86.202 204.49 84.6339 206.223L289.379 206.225ZM289.379 206.225C290.945 207.939 291.703 210.247 291.456 212.572L291.455 212.575L265.205 475.075L265.205 475.076M289.379 206.225L265.205 475.076M265.205 475.076C264.793 479.299 261.247 482.5 257.005 482.5H117.005C112.765 482.5 109.217 479.299 108.788 475.075L265.205 475.076ZM82.538 212.575C82.3072 210.25 83.0825 207.939 84.6337 206.223L82.538 212.575ZM82.538 212.575C82.538 212.575 82.538 212.576 82.538 212.576L108.788 475.074L82.538 212.575Z" stroke="black"/>
</g>
<path d="M266.455 292.25L249.13 465.5H124.88L105.455 271.775C127.33 264.775 160.58 260.05 187.005 281.75C212.555 302.75 244.755 298.9 266.455 292.25Z" fill="#2196F3"/>
<path d="M211.281 345.375C211.281 349.276 210.279 352.758 208.273 355.82C206.268 358.846 203.534 361.234 200.07 362.984C204.227 364.917 207.417 367.56 209.641 370.914C211.901 374.268 213.031 378.06 213.031 382.289C213.031 389.289 210.661 394.849 205.922 398.969C201.182 403.052 194.875 405.094 187 405.094C179.089 405.094 172.745 403.034 167.969 398.914C163.229 394.794 160.859 389.253 160.859 382.289C160.859 378.023 161.99 374.195 164.25 370.805C166.51 367.414 169.682 364.807 173.766 362.984C170.339 361.234 167.622 358.846 165.617 355.82C163.648 352.758 162.664 349.276 162.664 345.375C162.664 338.594 164.852 333.216 169.227 329.242C173.602 325.268 179.508 323.281 186.945 323.281C194.419 323.281 200.344 325.268 204.719 329.242C209.094 333.216 211.281 338.594 211.281 345.375ZM199.742 381.633C199.742 377.695 198.557 374.523 196.188 372.117C193.854 369.674 190.755 368.453 186.891 368.453C183.026 368.453 179.927 369.656 177.594 372.062C175.297 374.469 174.148 377.659 174.148 381.633C174.148 385.534 175.279 388.651 177.539 390.984C179.836 393.318 182.99 394.484 187 394.484C191.01 394.484 194.128 393.354 196.352 391.094C198.612 388.833 199.742 385.68 199.742 381.633ZM198.047 345.867C198.047 342.404 197.044 339.56 195.039 337.336C193.034 335.076 190.336 333.945 186.945 333.945C183.555 333.945 180.875 335.021 178.906 337.172C176.938 339.286 175.953 342.185 175.953 345.867C175.953 349.513 176.938 352.411 178.906 354.562C180.911 356.714 183.609 357.789 187 357.789C190.391 357.789 193.07 356.714 195.039 354.562C197.044 352.411 198.047 349.513 198.047 345.867Z" fill="black"/>
<path d="M98.125 104.111C100.256 101.641 102.95 100.405 106.208 100.405C112.403 100.405 115.545 103.941 115.635 111.013V130H109.109V111.255C109.109 109.25 108.67 107.835 107.793 107.012C106.934 106.17 105.662 105.75 103.979 105.75C101.366 105.75 99.4141 106.913 98.125 109.241V130H91.5991V88.75H98.125V104.111ZM132.419 120.654L138.328 100.942H145.283L133.735 134.404C131.963 139.292 128.955 141.736 124.712 141.736C123.763 141.736 122.716 141.575 121.57 141.252V136.204L122.805 136.284C124.452 136.284 125.688 135.98 126.511 135.371C127.353 134.78 128.015 133.778 128.499 132.363L129.438 129.866L119.233 100.942H126.27L132.419 120.654ZM147.458 115.256C147.458 110.78 148.497 107.191 150.574 104.487C152.651 101.766 155.435 100.405 158.926 100.405C162.005 100.405 164.494 101.479 166.392 103.628V88.75H172.917V130H167.009L166.687 126.992C164.736 129.355 162.131 130.537 158.872 130.537C155.47 130.537 152.713 129.167 150.601 126.428C148.506 123.689 147.458 119.965 147.458 115.256ZM153.984 115.82C153.984 118.774 154.548 121.084 155.676 122.749C156.822 124.396 158.442 125.22 160.537 125.22C163.205 125.22 165.156 124.029 166.392 121.648V109.241C165.192 106.913 163.258 105.75 160.591 105.75C158.478 105.75 156.849 106.591 155.703 108.274C154.557 109.939 153.984 112.454 153.984 115.82ZM194.939 106.904C194.08 106.761 193.193 106.689 192.28 106.689C189.29 106.689 187.276 107.835 186.238 110.127V130H179.712V100.942H185.942L186.104 104.192C187.679 101.667 189.863 100.405 192.656 100.405C193.587 100.405 194.357 100.531 194.966 100.781L194.939 106.904ZM215.618 130C215.331 129.445 215.081 128.541 214.866 127.288C212.789 129.454 210.247 130.537 207.239 130.537C204.32 130.537 201.939 129.705 200.095 128.04C198.251 126.375 197.329 124.316 197.329 121.863C197.329 118.765 198.475 116.393 200.767 114.746C203.076 113.081 206.37 112.249 210.649 112.249H214.651V110.342C214.651 108.838 214.23 107.638 213.389 106.743C212.547 105.83 211.267 105.374 209.548 105.374C208.062 105.374 206.845 105.75 205.896 106.501C204.947 107.236 204.473 108.175 204.473 109.321H197.947C197.947 107.728 198.475 106.242 199.531 104.863C200.588 103.467 202.02 102.375 203.828 101.587C205.654 100.799 207.686 100.405 209.924 100.405C213.326 100.405 216.038 101.265 218.062 102.983C220.085 104.684 221.123 107.083 221.177 110.181V123.286C221.177 125.9 221.544 127.986 222.278 129.543V130H215.618ZM208.447 125.3C209.736 125.3 210.945 124.987 212.073 124.36C213.219 123.734 214.078 122.892 214.651 121.836V116.357H211.133C208.716 116.357 206.899 116.778 205.681 117.62C204.464 118.461 203.855 119.652 203.855 121.191C203.855 122.445 204.267 123.447 205.09 124.199C205.932 124.933 207.051 125.3 208.447 125.3ZM253.457 115.767C253.457 120.26 252.437 123.85 250.396 126.536C248.354 129.203 245.615 130.537 242.178 130.537C238.991 130.537 236.44 129.49 234.524 127.395V141.172H227.998V100.942H234.014L234.282 103.896C236.198 101.569 238.803 100.405 242.097 100.405C245.642 100.405 248.417 101.73 250.422 104.38C252.445 107.012 253.457 110.673 253.457 115.364V115.767ZM246.958 115.203C246.958 112.302 246.376 110.002 245.212 108.301C244.067 106.6 242.419 105.75 240.271 105.75C237.603 105.75 235.688 106.851 234.524 109.053V121.943C235.706 124.199 237.639 125.327 240.325 125.327C242.402 125.327 244.022 124.495 245.186 122.83C246.367 121.147 246.958 118.604 246.958 115.203ZM284.448 115.767C284.448 120.26 283.428 123.85 281.387 126.536C279.346 129.203 276.606 130.537 273.169 130.537C269.982 130.537 267.431 129.49 265.515 127.395V141.172H258.989V100.942H265.005L265.273 103.896C267.189 101.569 269.794 100.405 273.088 100.405C276.633 100.405 279.408 101.73 281.414 104.38C283.437 107.012 284.448 110.673 284.448 115.364V115.767ZM277.949 115.203C277.949 112.302 277.367 110.002 276.204 108.301C275.058 106.6 273.411 105.75 271.262 105.75C268.595 105.75 266.679 106.851 265.515 109.053V121.943C266.697 124.199 268.63 125.327 271.316 125.327C273.393 125.327 275.013 124.495 276.177 122.83C277.358 121.147 277.949 118.604 277.949 115.203Z" fill="white"/>
<defs>
<filter id="filter0_d" x="77.9979" y="203" width="218.004" height="288" filterUnits="userSpaceOnUse" color-interpolation-filters="sRGB">
<feFlood flood-opacity="0" result="BackgroundImageFix"/>
<feColorMatrix in="SourceAlpha" type="matrix" values="0 0 0 0 0 0 0 0 0 0 0 0 0 0 0 0 0 0 127 0"/>
<feOffset dy="4"/>
<feGaussianBlur stdDeviation="2"/>
<feColorMatrix type="matrix" values="0 0 0 0 0 0 0 0 0 0 0 0 0 0 0 0 0 0 0.25 0"/>
<feBlend mode="normal" in2="BackgroundImageFix" result="effect1_dropShadow"/>
<feBlend mode="normal" in="SourceGraphic" in2="effect1_dropShadow" result="shape"/>
</filter>
</defs>
</svg>
